<svg width="45" height="46" viewBox="0 0 45 46" fill="none" xmlns="http://www.w3.org/2000/svg">
<path d="M19.2122 16.286H25.9726C27.7907 16.286 29.2649 17.7602 29.2649 19.5783V26.3387C29.2649 28.1568 27.7907 29.631 25.9726 29.631H19.2122C17.3941 29.631 15.9199 28.1568 15.9199 26.3387V19.5783C15.9199 17.7602 17.3941 16.286 19.2122 16.286Z" fill="white"/>
<path d="M44.8341 14.0619C44.8341 12.8328 43.8391 11.8378 42.61 11.8378H38.1617V9.61367C38.1617 8.38455 37.1667 7.38954 35.9376 7.38954H33.7135V2.94129C33.7135 1.71217 32.7185 0.717163 31.4893 0.717163C30.2602 0.717163 29.2652 1.71217 29.2652 2.94129V7.38954H24.817V2.94129C24.817 1.71217 23.822 0.717163 22.5928 0.717163C21.3637 0.717163 20.3687 1.71217 20.3687 2.94129V7.38954H15.9205V2.94129C15.9205 1.71217 14.9254 0.717163 13.6963 0.717163C12.4672 0.717163 11.4722 1.71217 11.4722 2.94129V7.38954H9.24807C8.01895 7.38954 7.02394 8.38455 7.02394 9.61367V11.8378H2.57569C1.34657 11.8378 0.351562 12.8328 0.351562 14.0619C0.351562 15.291 1.34657 16.2861 2.57569 16.2861H7.02394V20.7343H2.57569C1.34657 20.7343 0.351562 21.7293 0.351562 22.9584C0.351562 24.1876 1.34657 25.1826 2.57569 25.1826H7.02394V29.6308H2.57569C1.34657 29.6308 0.351562 30.6258 0.351562 31.8549C0.351562 33.0841 1.34657 34.0791 2.57569 34.0791H7.02394V36.3032C7.02394 37.5323 8.01895 38.5273 9.24807 38.5273H11.4722V42.9756C11.4722 44.2047 12.4672 45.1997 13.6963 45.1997C14.9254 45.1997 15.9205 44.2047 15.9205 42.9756V38.5273H20.3687V42.9756C20.3687 44.2047 21.3637 45.1997 22.5928 45.1997C23.822 45.1997 24.817 44.2047 24.817 42.9756V38.5273H29.2652V42.9756C29.2652 44.2047 30.2602 45.1997 31.4893 45.1997C32.7185 45.1997 33.7135 44.2047 33.7135 42.9756V38.5273H35.9376C37.1667 38.5273 38.1617 37.5323 38.1617 36.3032V34.0791H42.61C43.8391 34.0791 44.8341 33.0841 44.8341 31.8549C44.8341 30.6258 43.8391 29.6308 42.61 29.6308H38.1617V25.1826H42.61C43.8391 25.1826 44.8341 24.1876 44.8341 22.9584C44.8341 21.7293 43.8391 20.7343 42.61 20.7343H38.1617V16.2861H42.61C43.8391 16.2861 44.8341 15.291 44.8341 14.0619ZM33.7135 34.0791H11.4722V11.8378H33.7135V34.0791Z" fill="white"/>
</svg>
