<svg width="45" height="42" viewBox="0 0 45 42" fill="none" xmlns="http://www.w3.org/2000/svg">
<path d="M40.6087 41.5989C38.4036 41.7803 36.6325 39.3115 35.2184 37.9854V37.9836C34.9454 39.1749 33.9747 40.0764 32.7683 40.2634C31.5601 40.4486 30.3631 39.8782 29.7459 38.8252C19.7137 44.2006 5.41345 38.5727 1.86557 27.9306C-3.62385 15.1376 7.33822 -0.409862 21.1261 0.334189C33.6778 0.0592543 44.0299 13.718 40.3867 25.8565L41.5332 26.2137C42.8013 26.6252 43.6373 27.8334 43.5774 29.1632C43.5195 30.4948 42.5806 31.6226 41.2826 31.9219L43.641 34.2822C44.8417 35.5166 45.1934 37.3476 44.5332 38.9374C43.8748 40.529 42.3318 41.5745 40.6093 41.5989L40.6087 41.5989ZM34.6932 33.8481C35.0897 33.8481 35.4712 34.0052 35.7518 34.2857L39.6888 38.2227C40.8914 39.401 42.7336 37.5981 41.5292 36.4029L37.5922 32.4641C37.2406 32.1124 37.0872 31.6074 37.1826 31.1174C37.278 30.6293 37.6109 30.2197 38.071 30.0271L40.6258 28.9516C38.9145 28.5851 30.4609 25.8937 28.6147 25.327C29.634 28.6057 31.1115 33.3133 31.9962 36.1861C31.9981 36.1917 32.3572 37.3513 32.3609 37.3588L33.3129 34.7703H33.311C33.5448 34.213 34.0891 33.8481 34.6932 33.8481ZM20.7521 37.8954C23.262 37.9085 25.4783 34.8393 26.9467 30.0441L26.6007 28.9294L14.3411 28.9275C15.3941 32.7822 16.8903 37.2969 20.7527 37.894L20.7521 37.8954ZM28.3846 34.6598L28.3864 34.6579C28.0498 35.3593 27.6664 36.0363 27.2381 36.6872C27.7674 36.4684 28.2855 36.2234 28.7867 35.9484L28.3846 34.6598ZM5.57802 28.9272C7.46701 32.391 10.512 35.0807 14.1815 36.5281C12.79 34.1771 11.8081 31.6075 11.2807 28.9272H5.57802ZM13.7511 25.9347H25.6741C25.474 25.1174 25.6348 24.2533 26.1155 23.5613C26.5943 22.8693 27.3461 22.4148 28.1822 22.3138C28.2963 19.9684 28.1803 17.6156 27.8324 15.2927H13.6706C13.1506 18.8238 13.1788 22.4126 13.7511 25.9347ZM4.30968 25.9347H10.7471C10.2347 22.4073 10.1991 18.8274 10.6442 15.2924H4.36578C3.17065 18.7357 3.15008 22.4782 4.30968 25.9347ZM31.1448 22.9758L37.5282 24.9658C38.3773 21.7789 38.2576 18.4106 37.184 15.2927H30.8567C31.2046 17.8382 31.3001 20.4114 31.1448 22.9758ZM30.3088 12.3001H35.8542C33.9372 8.82695 30.9073 6.10207 27.2507 4.56082C28.7282 6.93609 29.7627 9.55851 30.3088 12.3001ZM14.3064 12.3001H27.2378C24.105 0.39002 17.4392 0.388105 14.3045 12.3001H14.3064ZM5.69767 12.3001H11.2335C11.7722 9.55635 12.8065 6.93422 14.2859 4.56082C10.6332 6.10006 7.60711 8.827 5.69575 12.3001H5.69767Z" fill="white"/>
</svg>
