<svg width="33" height="31" viewBox="0 0 33 31" fill="none" xmlns="http://www.w3.org/2000/svg">
<path fill-rule="evenodd" clip-rule="evenodd" d="M16.7217 1.66677C8.64835 1.66677 2.11235 8.16944 2.11235 16.1774C2.11235 22.0574 5.63635 27.1174 10.7083 29.3934C11.239 29.6321 11.7577 29.5374 12.163 29.2334C12.3872 29.0589 12.5679 28.8348 12.6909 28.5787C12.814 28.3226 12.8761 28.0415 12.8723 27.7574V26.9974L11.063 26.7521L11.023 26.7454C10.0257 26.5508 9.35235 26.2001 8.85901 25.6948C8.44435 25.2694 8.19101 24.7601 7.97635 24.3281L7.90168 24.1774C7.70274 23.7639 7.48609 23.359 7.25235 22.9641C7.07235 22.6788 6.93235 22.5321 6.79368 22.4401C6.44168 22.2068 6.10301 21.8108 6.10301 21.3161C6.10181 21.1737 6.13229 21.0329 6.19225 20.9037C6.25221 20.7746 6.34014 20.6604 6.44968 20.5694C6.6562 20.4053 6.91401 20.3194 7.17768 20.3268C7.47368 20.3268 7.75235 20.4174 7.98435 20.5214C8.22168 20.6281 8.45768 20.7694 8.67768 20.9161C9.21368 21.2734 9.74168 21.6961 10.1883 22.2174C10.6537 22.7588 10.983 23.1028 11.479 23.1734C11.887 23.2321 12.303 23.2334 12.627 23.2188C12.6403 23.1405 12.6581 23.0592 12.6803 22.9748C12.719 22.8228 12.7723 22.6508 12.8483 22.4721C12.4524 22.3807 12.062 22.2667 11.679 22.1308C10.807 21.8214 9.83501 21.3401 9.18168 20.6108C8.46435 19.8081 8.02035 19.0921 7.77235 18.2548C7.53101 17.4388 7.49101 16.5548 7.49101 15.4668C7.49101 13.8001 8.21235 12.3961 8.75368 11.6508C8.546 10.9982 8.39653 10.3284 8.30701 9.64944C8.24767 9.22123 8.24812 8.78685 8.30835 8.35877C8.37501 7.9681 8.54168 7.4881 8.98035 7.19877C9.40301 6.91744 9.89901 6.92944 10.2857 7.00144C10.687 7.07744 11.1043 7.2441 11.4883 7.43477C12.1137 7.7441 12.735 8.15744 13.2003 8.5081C14.003 8.2721 15.423 7.9681 16.707 7.9401H16.7363C18.0217 7.9681 19.3777 8.2721 20.1603 8.50677C20.627 8.15744 21.247 7.74277 21.871 7.43477C22.255 7.2441 22.671 7.07744 23.0737 7.00144C23.4603 6.92944 23.9563 6.91744 24.3803 7.19744C24.8177 7.4881 24.9857 7.9681 25.051 8.35877C25.119 8.76544 25.103 9.2201 25.051 9.64944C24.9619 10.3284 24.8129 10.9981 24.6057 11.6508C25.147 12.3974 25.8683 13.8014 25.8683 15.4668C25.8683 16.5548 25.8283 17.4388 25.5883 18.2534C25.339 19.0934 24.895 19.8081 24.1777 20.6108C23.5243 21.3401 22.5523 21.8214 21.6803 22.1308C21.2169 22.2916 20.744 22.4238 20.2643 22.5268C20.4283 23.0228 20.487 23.4241 20.487 23.6548V27.7748C20.487 28.4014 20.779 28.9361 21.1937 29.2481C21.5963 29.5534 22.1137 29.6481 22.6443 29.4161C27.7643 27.1601 31.3297 22.0868 31.3297 16.1761C31.3297 8.16944 24.7963 1.66677 16.7217 1.66677ZM13.3563 24.5534H13.351L13.3403 24.5561L13.3017 24.5614L13.1683 24.5761C13.0149 24.5915 12.8611 24.603 12.707 24.6108C12.232 24.634 11.7559 24.6148 11.2843 24.5534C10.2297 24.4041 9.58835 23.6574 9.17368 23.1721L9.13368 23.1268C8.99711 22.9704 8.85153 22.8222 8.69768 22.6828C8.83457 22.9379 8.97901 23.2179 9.13101 23.5228L9.14435 23.5494L9.21235 23.6881C9.44568 24.1521 9.59901 24.4614 9.85368 24.7201C10.1017 24.9734 10.4883 25.2188 11.2697 25.3734L13.6617 25.6974C13.829 25.7195 13.9825 25.8018 14.0934 25.929C14.2044 26.0561 14.2651 26.2194 14.2643 26.3881V27.7574C14.2643 28.8241 13.7643 29.7748 12.9977 30.3508C12.595 30.6579 12.1162 30.8495 11.6127 30.905C11.1093 30.9604 10.6003 30.8776 10.1403 30.6654C4.59101 28.1761 0.72168 22.6334 0.72168 16.1774C0.72168 7.3881 7.89101 0.273438 16.7217 0.273438C25.5523 0.273438 32.7217 7.3881 32.7217 16.1774C32.7217 22.6668 28.803 28.2241 23.2057 30.6921C22.7455 30.9007 22.2373 30.9802 21.7354 30.9222C21.2335 30.8642 20.7568 30.6708 20.3563 30.3628C19.9607 30.0576 19.641 29.6652 19.4221 29.216C19.2033 28.7668 19.0914 28.2731 19.095 27.7734V23.6534C19.095 23.5601 19.0297 23.0214 18.6657 22.2974C18.6154 22.197 18.5901 22.086 18.5919 21.9738C18.5937 21.8615 18.6224 21.7514 18.6758 21.6526C18.7292 21.5538 18.8056 21.4694 18.8985 21.4064C18.9914 21.3434 19.0982 21.3038 19.2097 21.2908C19.8932 21.205 20.5655 21.0458 21.215 20.8161C22.007 20.5361 22.7177 20.1521 23.1403 19.6801C23.7683 18.9788 24.0817 18.4401 24.2537 17.8574C24.4323 17.2534 24.4777 16.5508 24.4777 15.4668C24.4777 13.9454 23.6777 12.6668 23.3097 12.2548C23.2258 12.1619 23.1686 12.048 23.1442 11.9252C23.1197 11.8025 23.129 11.6754 23.171 11.5574C23.4064 10.8852 23.5739 10.1911 23.671 9.48544C23.7137 9.11877 23.7163 8.8121 23.679 8.59077C23.6693 8.51014 23.6449 8.43197 23.607 8.3601C23.5152 8.34479 23.4212 8.34888 23.331 8.3721C23.1043 8.41477 22.815 8.52144 22.487 8.6841C21.8337 9.00677 21.1537 9.4841 20.7323 9.82544C20.6394 9.90082 20.5286 9.95088 20.4106 9.97074C20.2926 9.9906 20.1715 9.97959 20.059 9.93877C18.9795 9.58554 17.8565 9.3823 16.7217 9.33477C15.379 9.36677 13.8297 9.7481 13.3003 9.93877C13.1879 9.97959 13.0668 9.9906 12.9488 9.97074C12.8308 9.95088 12.7199 9.90082 12.627 9.82544C12.081 9.38839 11.4932 9.0061 10.8723 8.6841C10.6053 8.54377 10.3212 8.43888 10.027 8.3721C9.93729 8.34906 9.84374 8.34498 9.75235 8.3601C9.7145 8.43197 9.69009 8.51014 9.68035 8.59077C9.64301 8.8121 9.64568 9.11877 9.68835 9.48544C9.78542 10.1911 9.95292 10.8852 10.1883 11.5574C10.2723 11.7974 10.2203 12.0641 10.0497 12.2548C9.68168 12.6668 8.88168 13.9454 8.88168 15.4668C8.88168 16.5494 8.92701 17.2534 9.10568 17.8574C9.27901 18.4401 9.59101 18.9774 10.2177 19.6801C10.6417 20.1521 11.351 20.5361 12.1443 20.8161C12.7934 21.0457 13.4653 21.2049 14.1483 21.2908C14.2889 21.3059 14.4215 21.3634 14.5286 21.4557C14.6356 21.548 14.712 21.6707 14.7476 21.8075C14.7832 21.9442 14.7764 22.0886 14.7279 22.2214C14.6794 22.3542 14.5917 22.4691 14.4763 22.5508C14.2563 22.7081 14.111 22.9908 14.0297 23.3174C13.9882 23.4857 13.9632 23.6576 13.955 23.8308V23.8561C13.9576 24.0254 13.8981 24.1898 13.7878 24.3182C13.6775 24.4467 13.5241 24.5303 13.3563 24.5534Z" fill="white"/>
</svg>
