<svg width="29" height="29" viewBox="0 0 29 29" fill="none" xmlns="http://www.w3.org/2000/svg">
<path fill-rule="evenodd" clip-rule="evenodd" d="M4.47135 0.94043C3.49889 0.94043 2.56626 1.32674 1.87863 2.01437C1.191 2.702 0.804688 3.63464 0.804688 4.6071C0.804688 5.57956 1.191 6.51219 1.87863 7.19982C2.56626 7.88745 3.49889 8.27376 4.47135 8.27376C5.44381 8.27376 6.37645 7.88745 7.06408 7.19982C7.75171 6.51219 8.13802 5.57956 8.13802 4.6071C8.13802 3.63464 7.75171 2.702 7.06408 2.01437C6.37645 1.32674 5.44381 0.94043 4.47135 0.94043ZM2.80469 4.6071C2.80469 4.16507 2.98028 3.74115 3.29284 3.42859C3.6054 3.11602 4.02933 2.94043 4.47135 2.94043C4.91338 2.94043 5.33731 3.11602 5.64987 3.42859C5.96243 3.74115 6.13802 4.16507 6.13802 4.6071C6.13802 5.04912 5.96243 5.47305 5.64987 5.78561C5.33731 6.09817 4.91338 6.27376 4.47135 6.27376C4.02933 6.27376 3.6054 6.09817 3.29284 5.78561C2.98028 5.47305 2.80469 5.04912 2.80469 4.6071ZM0.804688 9.94043C0.804688 9.67521 0.910044 9.42086 1.09758 9.23332C1.28512 9.04579 1.53947 8.94043 1.80469 8.94043H7.13802C7.40324 8.94043 7.65759 9.04579 7.84513 9.23332C8.03266 9.42086 8.13802 9.67521 8.13802 9.94043V27.2738C8.13802 27.539 8.03266 27.7933 7.84513 27.9809C7.65759 28.1684 7.40324 28.2738 7.13802 28.2738H1.80469C1.53947 28.2738 1.28512 28.1684 1.09758 27.9809C0.910044 27.7933 0.804688 27.539 0.804688 27.2738V9.94043ZM2.80469 10.9404V26.2738H6.13802V10.9404H2.80469ZM10.138 9.94043C10.138 9.67521 10.2434 9.42086 10.4309 9.23332C10.6185 9.04579 10.8728 8.94043 11.138 8.94043H16.4714C16.7366 8.94043 16.9909 9.04579 17.1785 9.23332C17.366 9.42086 17.4714 9.67521 17.4714 9.94043V10.5191L18.0514 10.2698C19.0514 9.84257 20.1123 9.57487 21.1954 9.47643C24.8954 9.14043 28.138 12.0471 28.138 15.7804V27.2738C28.138 27.539 28.0327 27.7933 27.8451 27.9809C27.6576 28.1684 27.4032 28.2738 27.138 28.2738H21.8047C21.5395 28.2738 21.2851 28.1684 21.0976 27.9809C20.91 27.7933 20.8047 27.539 20.8047 27.2738V17.9404C20.8047 17.4984 20.6291 17.0745 20.3165 16.7619C20.004 16.4494 19.58 16.2738 19.138 16.2738C18.696 16.2738 18.2721 16.4494 17.9595 16.7619C17.6469 17.0745 17.4714 17.4984 17.4714 17.9404V27.2738C17.4714 27.539 17.366 27.7933 17.1785 27.9809C16.9909 28.1684 16.7366 28.2738 16.4714 28.2738H11.138C10.8728 28.2738 10.6185 28.1684 10.4309 27.9809C10.2434 27.7933 10.138 27.539 10.138 27.2738V9.94043ZM12.138 10.9404V26.2738H15.4714V17.9404C15.4714 16.968 15.8577 16.0353 16.5453 15.3477C17.2329 14.6601 18.1656 14.2738 19.138 14.2738C20.1105 14.2738 21.0431 14.6601 21.7307 15.3477C22.4184 16.0353 22.8047 16.968 22.8047 17.9404V26.2738H26.138V15.7804C26.138 13.2418 23.9234 11.2364 21.378 11.4684C20.5036 11.5478 19.6469 11.7637 18.8394 12.1084L16.866 12.9551C16.7138 13.0205 16.5478 13.047 16.3828 13.0323C16.2178 13.0177 16.059 12.9622 15.9207 12.871C15.7824 12.7798 15.669 12.6557 15.5906 12.5098C15.5121 12.3639 15.4712 12.2007 15.4714 12.0351V10.9404H12.138Z" fill="white"/>
</svg>
