<svg width="45" height="46" viewBox="0 0 45 46" fill="none" xmlns="http://www.w3.org/2000/svg">
<path d="M4.95264 19.9998L10.3387 22.2332C9.73146 23.7663 9.24704 25.3454 8.89007 26.9553L8.68577 27.8839L16.4074 35.6102L17.336 35.4105C18.946 35.0536 20.525 34.5692 22.0582 33.9619L24.2915 39.348C24.3134 39.4014 24.3482 39.4485 24.3928 39.4851C24.4374 39.5217 24.4904 39.5466 24.547 39.5577C24.6037 39.5687 24.6622 39.5655 24.7172 39.5484C24.7723 39.5312 24.8223 39.5006 24.8626 39.4594L28.2382 36.0838C28.7891 35.533 29.2184 34.8728 29.4983 34.1458C29.7782 33.4188 29.9026 32.6412 29.8634 31.8632L29.7426 29.6948C35.9924 25.0795 42.3164 16.9864 44.039 2.86178C44.0879 2.50765 44.0543 2.14702 43.9409 1.80799C43.8275 1.46897 43.6373 1.16072 43.3852 0.907264C43.1331 0.653808 42.8259 0.461997 42.4874 0.346781C42.149 0.231565 41.7886 0.196057 41.4342 0.243025C27.3142 1.97958 19.2165 8.30825 14.6012 14.5394L12.4375 14.428C11.6611 14.3857 10.8845 14.5064 10.1576 14.7823C9.43074 15.0582 8.76962 15.4832 8.21681 16.0299L4.84121 19.4055C4.79444 19.4452 4.75901 19.4967 4.73851 19.5545C4.71801 19.6124 4.71318 19.6746 4.72449 19.735C4.7358 19.7953 4.76286 19.8516 4.80293 19.8981C4.843 19.9446 4.89465 19.9797 4.95264 19.9998ZM26.6085 11.7721C27.1935 11.1891 27.9381 10.7925 28.7483 10.6325C29.5586 10.4724 30.398 10.556 31.1608 10.8727C31.9235 11.1894 32.5753 11.7251 33.0339 12.412C33.4924 13.0989 33.7371 13.9062 33.7371 14.7321C33.7371 15.558 33.4924 16.3654 33.0339 17.0522C32.5753 17.7391 31.9235 18.2748 31.1608 18.5915C30.398 18.9082 29.5586 18.9918 28.7483 18.8317C27.9381 18.6717 27.1935 18.2751 26.6085 17.6921C26.2189 17.3039 25.9098 16.8426 25.6989 16.3346C25.488 15.8267 25.3794 15.2821 25.3794 14.7321C25.3794 14.1821 25.488 13.6375 25.6989 13.1296C25.9098 12.6216 26.2189 12.1603 26.6085 11.7721ZM3.94507 36.2278C3.05127 35.9141 2.09146 35.8373 1.15916 36.0049C1.0763 36.0228 0.990248 36.0194 0.909048 35.9951C0.827848 35.9707 0.754149 35.9262 0.694839 35.8656C0.621312 35.7923 0.572077 35.6983 0.553805 35.5961C0.535533 35.494 0.549107 35.3887 0.592689 35.2945C1.58169 33.1679 4.20509 28.8915 8.95507 32.346C8.97989 32.3683 8.99974 32.3955 9.01333 32.4259C9.02692 32.4563 9.03394 32.4892 9.03394 32.5225C9.03394 32.5558 9.02692 32.5887 9.01333 32.6191C8.99974 32.6495 8.97989 32.6767 8.95507 32.6989C8.31915 33.1997 7.81 33.8432 7.4688 34.5772C7.1276 35.3112 6.96392 36.1152 6.991 36.9242C6.99446 37.0192 7.03373 37.1093 7.10091 37.1765C7.1681 37.2437 7.25822 37.2829 7.35317 37.2864C8.15873 37.3188 8.96066 37.1617 9.69449 36.8279C10.4283 36.494 11.0736 35.9927 11.5785 35.3641C11.6007 35.3369 11.6287 35.315 11.6604 35.3C11.6921 35.2849 11.7268 35.2771 11.7619 35.2771C11.797 35.2771 11.8317 35.2849 11.8634 35.3C11.8951 35.315 11.9231 35.3369 11.9453 35.3641C12.6046 36.1488 14.4201 38.7119 12.4096 41.1867C11.5319 42.2416 10.2743 42.9088 8.90864 43.044C6.9585 43.2529 3.35539 43.889 1.8835 45.5699C1.82441 45.6399 1.74743 45.6925 1.66077 45.7222C1.57411 45.7519 1.48101 45.7575 1.39141 45.7384C1.3018 45.7194 1.21906 45.6764 1.15199 45.614C1.08492 45.5516 1.03604 45.4721 1.01058 45.3841C0.490538 43.6104 -0.317377 39.6451 3.94507 36.2278Z" fill="white"/>
</svg>
